<?xml version="1.0" standalone="no"?><!DOCTYPE svg PUBLIC "-//W3C//DTD SVG 1.1//EN" "http://www.w3.org/Graphics/SVG/1.1/DTD/svg11.dtd"><svg t="1599748328475" class="icon" viewBox="0 0 1024 1024" version="1.1" xmlns="http://www.w3.org/2000/svg" p-id="4590" width="64" height="64" xmlns:xlink="http://www.w3.org/1999/xlink"><defs><style type="text/css"></style></defs><path d="M626.523302 732.676847a145.661576 145.661576 0 1 0 145.661576 145.661577 145.661576 145.661576 0 0 0-145.661576-145.661577z m0 218.503388a72.753625 72.753625 0 1 1 72.753625-72.753625 72.753625 72.753625 0 0 1-72.753625 72.665439z" p-id="4591" fill="#515151"></path><path d="M767.555102 914.56091a72.753625 72.753625 0 0 1-48.215812-91.030217l94.60176-307.637602 65.94124 33.400528z" p-id="4592" fill="#515151"></path><path d="M814.867005 255.1926a254.902247 254.902247 0 1 0-497.03954 79.367591 35.935882 35.935882 0 0 0 47.708741 21.517436l1.21256-0.462977a36.509092 36.509092 0 0 0 19.952131-45.98911 174.013444 174.013444 0 0 1 0.396838-110.519371 181.83997 181.83997 0 1 1 183.096623 237.242958c-3.417216 0-6.768292-0.374791-10.2296-0.374791A546.291539 546.291539 0 0 0 15.172384 941.964776a36.795697 36.795697 0 0 0 36.310673 40.10268 35.913835 35.913835 0 0 0 36.20044-32.695038 473.449728 473.449728 0 0 1 472.281261-440.710597h7.319455a255.740016 255.740016 0 0 0 100.28977-23.633905c0.507071-0.220466 1.21256-0.440931 1.719632-0.617303l0.462977-0.462978a252.940104 252.940104 0 0 0 145.110413-228.755035z" p-id="4593" fill="#515151"></path><path d="M989.387519 714.267975l1.41098-0.793675a35.957928 35.957928 0 0 0 10.516205-52.558983 549.708755 549.708755 0 0 0-170.618274-152.936939 12.522442 12.522442 0 0 0-18.056127 7.429688l-16.667194 56.880107a476.580338 476.580338 0 0 1 146.256833 131.199038 36.046114 36.046114 0 0 0 47.157577 10.780764z" p-id="4594" fill="#515151"></path></svg>